<?xml version="1.0" encoding="utf-8"?>
<!-- Svg Vector Icons : http://www.onlinewebfonts.com/icon -->
<!DOCTYPE svg PUBLIC "-//W3C//DTD SVG 1.1//EN" "http://www.w3.org/Graphics/SVG/1.1/DTD/svg11.dtd">
<svg version="1.1" xmlns="http://www.w3.org/2000/svg" xmlns:xlink="http://www.w3.org/1999/xlink" x="0px" y="0px" viewBox="0 0 1000 1000" enable-background="new 0 0 1000 1000" xml:space="preserve">
<metadata> Svg Vector Icons : http://www.onlinewebfonts.com/icon </metadata>
<g><path d="M898.1,408.1c-27.2,0-51.6,11.8-68.5,30.6H647.9l128.6-128.6c25.2,1.4,50.8-7.5,70.1-26.8c35.9-35.9,35.9-94.1,0-129.9c-35.9-35.9-94.1-35.9-129.9,0c-19.2,19.2-28.1,44.9-26.8,70.1L561.3,352.1V170.3c18.8-16.8,30.6-41.3,30.6-68.5c0-50.7-41.1-91.9-91.9-91.9s-91.9,41.1-91.9,91.9c0,27.2,11.8,51.6,30.6,68.5v181.8L310.2,223.6c1.4-25.2-7.5-50.8-26.8-70.1c-35.9-35.9-94.1-35.9-129.9,0c-35.9,35.9-35.9,94.1,0,129.9c19.2,19.2,44.9,28.1,70.1,26.8l128.6,128.6H170.3c-16.8-18.8-41.3-30.6-68.5-30.6C51.1,408.1,10,449.3,10,500c0,50.7,41.1,91.9,91.9,91.9c27.2,0,51.6-11.8,68.5-30.6h181.8L223.6,689.8c-25.2-1.4-50.8,7.5-70.1,26.8c-35.9,35.9-35.9,94.1,0,129.9c35.9,35.9,94.1,35.9,129.9,0c19.2-19.2,28.1-44.9,26.8-70.1l128.6-128.6v181.8c-18.8,16.8-30.6,41.3-30.6,68.5c0,50.7,41.1,91.9,91.9,91.9s91.9-41.1,91.9-91.9c0-27.2-11.8-51.6-30.6-68.5V647.9l128.6,128.6c-1.4,25.2,7.5,50.8,26.8,70.1c35.9,35.9,94.1,35.9,129.9,0c35.9-35.9,35.9-94.1,0-129.9c-19.2-19.2-44.9-28.1-70.1-26.8L647.9,561.3h181.8c16.8,18.8,41.3,30.6,68.5,30.6c50.7,0,91.9-41.1,91.9-91.9C990,449.3,948.9,408.1,898.1,408.1L898.1,408.1z"/></g>
</svg>